<svg xmlns="http://www.w3.org/2000/svg" viewBox="0 0 64 64" width="512" height="512" role="img" aria-label="Veritas"><defs><linearGradient id="vt-beam" x1="0" y1="0" x2="0" y2="1"><stop offset="0" stop-color="#2ab8c9" stop-opacity="0.35"/><stop offset="0.5" stop-color="#5ce1ee"/><stop offset="1" stop-color="#92edf6"/></linearGradient><radialGradient id="vt-halo"><stop offset="0" stop-color="#5ce1ee" stop-opacity="0.85"/><stop offset="1" stop-color="#5ce1ee" stop-opacity="0"/></radialGradient></defs><ellipse cx="32" cy="29" rx="29" ry="9" transform="rotate(-16 32 29)" fill="none" stroke="#5ce1ee" stroke-opacity="0.32" stroke-width="0.55"/><circle cx="32" cy="46.6" r="13" fill="url(#vt-halo)" opacity="0.5"/><path d="M8.4 9.2L14.4 6.4Q20.9 32.8 32 46.6Q14.6 36.6 8.4 9.2Z" fill="url(#vt-beam)"/><path d="M55.6 9.2L49.6 6.4Q43.1 32.8 32 46.6Q49.4 36.6 55.6 9.2Z" fill="url(#vt-beam)"/><path d="M32 35.4C32.7 42.4 34.4 44.9 41 46.6C34.4 48.3 32.7 50.8 32 57.8C31.3 50.8 29.6 48.3 23 46.6C29.6 44.9 31.3 42.4 32 35.4Z" fill="#ffffff"/></svg>
